<?xml version="1.0" standalone="no"?>
<!DOCTYPE svg PUBLIC "-//W3C//DTD SVG 20010904//EN"
 "http://www.w3.org/TR/2001/REC-SVG-20010904/DTD/svg10.dtd">
<svg version="1.0" xmlns="http://www.w3.org/2000/svg"
 width="1136.000000pt" height="1136.000000pt" viewBox="0 0 1136.000000 1136.000000"
 preserveAspectRatio="xMidYMid meet">
<metadata>
Created by potrace 1.14, written by Peter Selinger 2001-2017
</metadata>
<g transform="translate(0.000000,1136.000000) scale(0.100000,-0.100000)"
fill="#000000" stroke="none">
<path d="M4911 10580 c-3 -3 -15 -25 -26 -50 -10 -25 -22 -49 -26 -55 -22 -31
-227 -454 -222 -459 4 -3 2 -6 -4 -6 -10 0 -93 -160 -93 -179 0 -5 -3 -11 -7
-13 -9 -3 -378 -744 -378 -756 0 -4 -5 -14 -12 -22 -7 -8 -64 -120 -127 -248
-63 -128 -118 -238 -122 -244 -9 -15 -97 -191 -99 -198 -1 -3 -55 -111 -120
-240 -65 -129 -119 -237 -120 -240 -1 -3 -41 -84 -89 -180 -217 -428 -366
-730 -366 -739 0 -5 -3 -11 -7 -13 -7 -2 -44 -72 -48 -88 -1 -3 -88 -178 -195
-390 -107 -212 -203 -405 -214 -430 -11 -25 -22 -47 -26 -50 -11 -10 -704
-1408 -701 -1415 1 -4 -2 -11 -7 -14 -6 -3 -141 -269 -302 -591 -160 -322
-296 -587 -301 -588 -5 -2 -7 -7 -5 -10 2 -4 -24 -62 -58 -130 -33 -67 -245
-490 -470 -940 -226 -449 -410 -819 -411 -822 -1 -3 -76 -155 -168 -337 -92
-183 -168 -336 -170 -340 -1 -5 357 -8 796 -9 l798 -1 17 29 c9 15 21 28 26
28 5 0 7 3 3 6 -3 3 10 27 29 52 44 60 43 59 83 117 19 28 37 52 41 55 3 3 18
23 35 45 41 56 165 206 192 232 13 12 23 24 23 27 0 6 23 31 160 171 124 128
249 243 374 346 16 13 46 39 67 57 20 17 41 32 47 32 6 0 12 3 14 8 5 12 137
112 148 112 5 0 10 4 10 8 0 5 12 15 28 23 15 8 32 19 39 24 27 22 40 31 95
68 32 20 62 37 68 37 5 0 10 4 10 8 0 5 15 16 33 25 17 9 39 21 47 27 34 22
132 77 239 132 63 33 122 64 130 69 14 8 107 49 121 54 3 1 28 12 55 25 28 13
52 24 55 25 3 1 19 7 35 14 44 17 60 23 60 20 0 -1 11 4 25 11 14 8 30 15 35
16 6 1 24 8 40 15 17 6 35 13 40 15 6 2 48 16 95 32 124 43 243 80 280 86 8 1
25 6 37 10 12 4 30 9 40 11 10 2 38 8 63 14 25 7 56 14 70 17 14 2 32 7 40 9
8 2 31 7 50 10 19 3 67 12 105 20 39 7 93 17 120 21 28 3 59 8 70 10 66 9 108
14 170 20 39 3 78 8 88 10 109 20 640 20 832 0 22 -3 69 -8 105 -11 36 -4 77
-8 91 -11 15 -2 47 -6 70 -9 41 -5 133 -20 189 -31 14 -3 39 -7 55 -9 17 -3
41 -7 55 -10 46 -11 65 -15 85 -19 11 -2 49 -12 85 -21 36 -10 72 -18 80 -19
8 -2 22 -5 30 -8 14 -6 59 -18 88 -24 8 -1 21 -6 30 -10 9 -4 25 -9 35 -11 10
-2 71 -21 135 -43 64 -23 122 -42 127 -43 6 -2 19 -8 30 -14 11 -6 22 -11 25
-11 3 0 19 -6 35 -12 17 -7 35 -13 40 -15 6 -1 27 -10 47 -19 21 -9 39 -15 40
-14 2 1 17 -5 33 -14 17 -9 55 -27 85 -41 155 -71 358 -178 459 -241 22 -15
43 -26 46 -26 10 0 320 -212 323 -221 2 -5 8 -9 13 -9 8 0 125 -84 139 -100 3
-3 25 -21 50 -40 25 -19 55 -44 66 -55 12 -11 41 -36 64 -55 145 -121 406
-386 543 -553 18 -22 39 -47 47 -57 8 -9 26 -32 40 -50 14 -18 30 -38 35 -44
6 -6 48 -63 93 -126 45 -63 86 -120 92 -127 5 -7 10 -16 10 -20 1 -4 10 -19
21 -33 l21 -25 798 -1 798 -1 -926 1851 c-510 1018 -929 1858 -932 1866 -3 8
-446 895 -985 1970 -538 1075 -979 1957 -980 1960 -2 9 -280 565 -285 570 -5
5 -193 381 -195 390 -1 3 -121 245 -268 537 -147 293 -267 535 -267 538 -1 2
-15 30 -33 62 l-33 58 -763 0 c-419 0 -766 -2 -770 -5z m777 -1610 c-1 -3 7
-19 20 -37 12 -17 22 -37 22 -45 0 -8 6 -20 13 -26 6 -7 13 -16 13 -20 5 -27
18 -52 26 -52 5 0 6 -4 3 -10 -3 -5 -1 -10 4 -10 6 0 11 -6 11 -12 0 -7 20
-51 44 -98 115 -225 180 -356 182 -368 1 -7 7 -19 14 -27 6 -7 40 -73 75 -145
35 -73 71 -143 80 -156 8 -13 15 -28 15 -34 0 -6 8 -22 17 -37 10 -14 18 -33
20 -42 1 -9 7 -17 13 -19 5 -2 8 -8 4 -13 -3 -5 0 -9 5 -9 6 0 11 -5 11 -11 0
-9 93 -199 160 -329 13 -25 25 -51 26 -58 1 -7 7 -19 14 -26 9 -12 101 -192
105 -206 2 -7 135 -272 146 -290 5 -8 28 -55 52 -105 24 -49 48 -99 55 -110 6
-11 31 -60 55 -110 24 -49 72 -146 107 -215 35 -69 64 -127 65 -130 3 -13 137
-275 146 -287 6 -7 8 -13 5 -13 -4 0 2 -13 13 -29 12 -16 21 -35 21 -43 0 -7
9 -24 20 -38 11 -14 20 -32 20 -40 0 -8 9 -26 20 -40 11 -14 20 -29 20 -33 0
-12 139 -290 151 -302 5 -5 9 -14 9 -21 0 -6 12 -33 27 -60 15 -27 28 -55 30
-62 1 -8 9 -22 19 -33 9 -10 14 -19 9 -19 -4 0 -3 -6 3 -12 10 -13 21 -35 146
-288 37 -74 71 -139 75 -145 5 -5 10 -17 13 -25 2 -8 32 -71 67 -140 36 -69
66 -131 67 -138 1 -7 8 -20 15 -28 14 -17 61 -112 65 -132 1 -8 10 -22 20 -33
9 -10 14 -19 10 -19 -4 0 3 -15 16 -32 13 -18 22 -35 21 -38 -1 -3 35 -77 79
-164 44 -88 73 -154 64 -147 -9 8 -16 10 -16 6 0 -4 -10 -1 -22 7 -13 8 -97
44 -188 80 -193 77 -202 80 -215 84 -5 1 -41 14 -80 28 -38 14 -70 26 -70 25
0 0 -7 2 -15 4 -8 3 -55 17 -105 32 -49 15 -101 31 -115 36 -43 15 -300 79
-400 100 -52 11 -104 22 -115 25 -34 7 -66 13 -114 20 -25 4 -55 8 -66 11 -11
2 -29 6 -40 8 -11 3 -40 7 -65 9 -25 3 -55 8 -68 10 -13 3 -43 6 -68 7 -24 2
-44 5 -44 8 0 3 -15 6 -33 7 -17 0 -66 4 -107 8 -120 11 -218 17 -317 19 -51
1 -93 4 -93 7 0 11 -499 0 -669 -15 -110 -9 -186 -16 -216 -20 -16 -2 -57 -6
-90 -10 -33 -4 -71 -9 -85 -11 -14 -2 -45 -6 -70 -9 -44 -6 -64 -9 -107 -19
-21 -5 -101 -17 -138 -22 -11 -1 -20 -3 -20 -4 0 -2 -9 -4 -20 -5 -34 -5 -79
-14 -112 -24 -18 -5 -33 -7 -33 -5 0 3 -6 2 -12 -3 -7 -4 -17 -8 -23 -9 -45
-8 -85 -17 -186 -43 -64 -17 -128 -35 -142 -40 -15 -6 -27 -8 -27 -5 0 4 -6 2
-12 -4 -7 -6 -17 -11 -23 -11 -8 -1 -103 -28 -125 -36 -3 -1 -20 -6 -38 -10
-18 -4 -35 -12 -38 -16 -3 -5 -14 -9 -25 -9 -10 0 -27 -4 -37 -9 -9 -5 -87
-35 -172 -66 -85 -32 -182 -70 -215 -85 -133 -61 -141 -61 -104 2 16 27 29 55
29 61 0 7 4 17 10 23 11 11 103 197 100 203 -1 2 2 7 7 10 4 3 34 60 66 126
32 66 63 129 69 140 37 67 102 201 100 208 -1 4 3 7 8 7 6 0 10 6 10 13 0 6 7
26 16 42 32 59 94 183 94 187 0 3 18 38 40 78 22 40 40 79 40 86 0 7 3 14 8
16 6 2 114 214 117 228 0 3 9 21 20 40 11 19 19 38 20 42 0 4 6 13 13 19 6 7
12 21 12 30 0 10 3 19 8 21 8 3 144 276 148 296 1 7 8 20 15 28 10 12 59 108
64 124 0 3 30 61 65 130 167 330 263 526 262 533 -1 4 2 7 8 7 5 0 10 6 10 13
0 6 7 26 16 42 9 17 34 66 56 110 22 44 44 89 50 100 6 11 14 27 18 35 4 8 17
33 28 55 11 22 39 76 61 120 22 44 41 85 41 92 0 6 3 13 8 15 7 3 75 137 76
151 1 4 6 11 11 15 6 4 12 16 13 27 2 11 7 22 10 25 6 4 63 115 67 130 5 16
19 46 24 50 10 8 111 216 111 227 0 6 7 16 15 23 8 6 14 15 13 18 -1 4 18 45
42 92 24 47 66 132 94 190 28 58 53 107 56 110 8 8 52 105 50 109 -1 2 2 7 7
10 7 5 65 116 68 131 1 3 30 61 65 130 35 69 88 176 119 238 30 62 59 111 64
109 5 -1 7 -5 5 -7z"/>
</g>
</svg>
